<svg width="900" height="320" viewBox="0 0 900 320" xmlns="http://www.w3.org/2000/svg" font-family="'SF Pro Display', 'PingFang SC', 'Helvetica Neue', sans-serif">
  <defs>
    <linearGradient id="bg2" x1="0%" y1="0%" x2="100%" y2="100%">
      <stop offset="0%" style="stop-color:#0f1117"/>
      <stop offset="100%" style="stop-color:#1a1d2e"/>
    </linearGradient>
  </defs>

  <rect width="900" height="320" rx="12" fill="url(#bg2)" stroke="#2a2d3e" stroke-width="1.5"/>

  <!-- Title -->
  <text x="450" y="44" text-anchor="middle" fill="#64748b" font-size="12" letter-spacing="3">主流部署平台对比</text>

  <!-- Headers -->
  <text x="80" y="84" fill="#475569" font-size="11" letter-spacing="1">平台</text>
  <text x="260" y="84" text-anchor="middle" fill="#475569" font-size="11" letter-spacing="1">平台绑定</text>
  <text x="420" y="84" text-anchor="middle" fill="#475569" font-size="11" letter-spacing="1">运行时限制</text>
  <text x="580" y="84" text-anchor="middle" fill="#475569" font-size="11" letter-spacing="1">内网支持</text>
  <text x="740" y="84" text-anchor="middle" fill="#475569" font-size="11" letter-spacing="1">免费使用</text>
  <line x1="36" y1="94" x2="864" y2="94" stroke="#2a2d3e" stroke-width="1"/>

  <!-- Row: Vercel -->
  <text x="80" y="128" fill="#e2e8f0" font-size="13">Vercel</text>
  <rect x="200" y="112" width="120" height="26" rx="4" fill="#ef4444" fill-opacity="0.1" stroke="#ef4444" stroke-opacity="0.25" stroke-width="1"/>
  <text x="260" y="129" text-anchor="middle" fill="#ef4444" font-size="11">边缘节点绑定</text>
  <rect x="360" y="112" width="120" height="26" rx="4" fill="#ef4444" fill-opacity="0.1" stroke="#ef4444" stroke-opacity="0.25" stroke-width="1"/>
  <text x="420" y="129" text-anchor="middle" fill="#ef4444" font-size="11">Serverless fn</text>
  <text x="580" y="129" text-anchor="middle" fill="#475569" font-size="18">—</text>
  <text x="740" y="129" text-anchor="middle" fill="#f59e0b" font-size="11">有限额</text>

  <!-- Row: Cloudflare -->
  <line x1="36" y1="148" x2="864" y2="148" stroke="#2a2d3e" stroke-width="1" stroke-dasharray="4,4"/>
  <text x="80" y="178" fill="#e2e8f0" font-size="13">Cloudflare</text>
  <rect x="200" y="162" width="120" height="26" rx="4" fill="#ef4444" fill-opacity="0.1" stroke="#ef4444" stroke-opacity="0.25" stroke-width="1"/>
  <text x="260" y="179" text-anchor="middle" fill="#ef4444" font-size="11">CF 边缘网络</text>
  <rect x="360" y="162" width="120" height="26" rx="4" fill="#ef4444" fill-opacity="0.1" stroke="#ef4444" stroke-opacity="0.25" stroke-width="1"/>
  <text x="420" y="179" text-anchor="middle" fill="#ef4444" font-size="11">Workers 运行时</text>
  <text x="580" y="179" text-anchor="middle" fill="#475569" font-size="18">—</text>
  <text x="740" y="179" text-anchor="middle" fill="#f59e0b" font-size="11">有限额</text>

  <!-- Row: Railway -->
  <line x1="36" y1="198" x2="864" y2="198" stroke="#2a2d3e" stroke-width="1" stroke-dasharray="4,4"/>
  <text x="80" y="228" fill="#e2e8f0" font-size="13">Railway</text>
  <rect x="200" y="212" width="120" height="26" rx="4" fill="#4ade80" fill-opacity="0.08" stroke="#4ade80" stroke-opacity="0.25" stroke-width="1"/>
  <text x="260" y="229" text-anchor="middle" fill="#4ade80" font-size="11">平台无关 ✓</text>
  <rect x="360" y="212" width="120" height="26" rx="4" fill="#4ade80" fill-opacity="0.08" stroke="#4ade80" stroke-opacity="0.25" stroke-width="1"/>
  <text x="420" y="229" text-anchor="middle" fill="#4ade80" font-size="11">任意语言 ✓</text>
  <text x="580" y="229" text-anchor="middle" fill="#475569" font-size="18">—</text>
  <rect x="680" y="212" width="120" height="26" rx="4" fill="#ef4444" fill-opacity="0.1" stroke="#ef4444" stroke-opacity="0.25" stroke-width="1"/>
  <text x="740" y="229" text-anchor="middle" fill="#ef4444" font-size="11">CLI 需付费</text>

  <!-- Row: 空岛 highlight -->
  <line x1="36" y1="248" x2="864" y2="248" stroke="#2a2d3e" stroke-width="1" stroke-dasharray="4,4"/>
  <rect x="36" y="258" width="828" height="40" rx="6" fill="#3b82f6" fill-opacity="0.06" stroke="#3b82f6" stroke-opacity="0.3" stroke-width="1"/>
  <text x="80" y="283" fill="#60a5fa" font-size="13" font-weight="600">空岛 Skyisland</text>
  <rect x="200" y="262" width="120" height="26" rx="4" fill="#4ade80" fill-opacity="0.08" stroke="#4ade80" stroke-opacity="0.25" stroke-width="1"/>
  <text x="260" y="279" text-anchor="middle" fill="#4ade80" font-size="11">平台无关 ✓</text>
  <rect x="360" y="262" width="120" height="26" rx="4" fill="#4ade80" fill-opacity="0.08" stroke="#4ade80" stroke-opacity="0.25" stroke-width="1"/>
  <text x="420" y="279" text-anchor="middle" fill="#4ade80" font-size="11">任意语言 ✓</text>
  <rect x="520" y="262" width="120" height="26" rx="4" fill="#4ade80" fill-opacity="0.08" stroke="#4ade80" stroke-opacity="0.25" stroke-width="1"/>
  <text x="580" y="279" text-anchor="middle" fill="#4ade80" font-size="11">内网原生 ✓</text>
  <rect x="680" y="262" width="120" height="26" rx="4" fill="#4ade80" fill-opacity="0.08" stroke="#4ade80" stroke-opacity="0.25" stroke-width="1"/>
  <text x="740" y="279" text-anchor="middle" fill="#4ade80" font-size="11">完全免费 ✓</text>
</svg>
